<svg width="19" height="17" viewBox="0 0 19 17" fill="none" xmlns="http://www.w3.org/2000/svg">
<path fill-rule="evenodd" clip-rule="evenodd" d="M16.25 1.5H13.25C12.9739 1.5 12.75 1.72386 12.75 2V5C12.75 5.27614 12.9739 5.5 13.25 5.5H16.25C16.5261 5.5 16.75 5.27614 16.75 5V2C16.75 1.72386 16.5261 1.5 16.25 1.5ZM13.25 0C12.1454 0 11.25 0.89543 11.25 2V5C11.25 6.10457 12.1454 7 13.25 7H16.25C17.3546 7 18.25 6.10457 18.25 5V2C18.25 0.895431 17.3546 0 16.25 0H13.25ZM2 5C2 2.37665 4.12665 0.25 6.75 0.25H8.25C8.66422 0.25 9 0.585786 9 1C9 1.41421 8.66422 1.75 8.25 1.75H6.75C4.95508 1.75 3.5 3.20507 3.5 5V5.59861L3.83398 5.37596C4.17862 5.1462 4.64428 5.23933 4.87404 5.58397C5.10381 5.92862 5.01067 6.39427 4.66603 6.62404L3.16603 7.62404C2.9141 7.79199 2.5859 7.79199 2.33398 7.62404L0.833978 6.62404C0.489332 6.39427 0.396201 5.92862 0.625966 5.58397C0.85573 5.23933 1.32138 5.1462 1.66603 5.37596L2 5.59861V5ZM17.166 9.87596L18.666 10.876C19.0107 11.1057 19.1038 11.5714 18.874 11.916C18.6443 12.2607 18.1786 12.3538 17.834 12.124L17.5 11.9014V12C17.5 14.6234 15.3734 16.75 12.75 16.75H11.25C10.8358 16.75 10.5 16.4142 10.5 16C10.5 15.5858 10.8358 15.25 11.25 15.25H12.75C14.5449 15.25 16 13.7949 16 12V11.9014L15.666 12.124C15.3214 12.3538 14.8557 12.2607 14.626 11.916C14.3962 11.5714 14.4893 11.1057 14.834 10.876L16.334 9.87596C16.5859 9.70801 16.9141 9.70801 17.166 9.87596ZM3.25 11.5H6.25C6.52615 11.5 6.75 11.7239 6.75 12V15C6.75 15.2761 6.52615 15.5 6.25 15.5H3.25C2.97386 15.5 2.75 15.2761 2.75 15V12C2.75 11.7239 2.97386 11.5 3.25 11.5ZM1.25 12C1.25 10.8954 2.14543 10 3.25 10H6.25C7.35457 10 8.25 10.8954 8.25 12V15C8.25 16.1046 7.35457 17 6.25 17H3.25C2.14543 17 1.25 16.1046 1.25 15V12Z" fill="white"/>
</svg>
