<?xml version="1.0" encoding="iso-8859-1"?>
<!-- Uploaded to: SVG Repo, www.svgrepo.com, Generator: SVG Repo Mixer Tools -->
<svg fill="#FFFFFF" version="1.1" id="Layer_1" xmlns="http://www.w3.org/2000/svg" xmlns:xlink="http://www.w3.org/1999/xlink" 
	 viewBox="0 0 512 512" xml:space="preserve">
<g>
	<g>
		<rect x="88.945" y="357.209" width="238.14" height="35.721"/>
	</g>
</g>
<g>
	<g>
		<path d="M419.41,245.678c9.362-14.12,14.834-31.037,14.834-49.212c0-26.387-11.513-50.128-29.767-66.491V0H11.546v512h392.93
			V281.258l70.72,70.72l25.257-25.258L419.41,245.678z M368.755,476.279H47.267V35.721h321.488v74.691
			c-7.587-2.103-15.567-3.249-23.814-3.249c-16.183,0-31.361,4.348-44.465,11.907H88.942v35.721h177.052
			c-6.599,12.45-10.354,26.629-10.354,41.674c0,15.046,3.755,29.225,10.354,41.674H88.942v35.721h211.535
			c13.104,7.559,28.281,11.907,44.465,11.907c8.247,0,16.227-1.147,23.814-3.249V476.279z M344.941,250.047
			c-23.284,0-43.137-14.933-50.509-35.721h50.509v-35.721h-50.509c7.373-20.788,27.225-35.721,50.509-35.721
			c29.545,0,53.581,24.035,53.581,53.581C398.523,226.011,374.486,250.047,344.941,250.047z"/>
	</g>
</g>
</svg>